# xmcd
# 
# Track frame offsets:
#     150
#     32044
#     70201
#     81781
#     104720
#     137065
#     151282
#     174659
# 
# Disc length: 2761
# 
# Revision: 1
# Processed by: cddbd v1.5.2PL0 Copyright (c) Steve Scherf et al.
# Submitted via: fre:ac v1.0.31
# 
DISCID=690ac708
DTITLE=Vladimir Galaktionov - Just...
DYEAR=2001
DGENRE=Jazz
TTITLE0=Dance
TTITLE1=I'm Jealous
TTITLE2=Just...
TTITLE3=January Sun
TTITLE4=Before the Solar Eclipse
TTITLE5=Night Rain
TTITLE6=Wheel of Time
TTITLE7=Baby in the City
EXTD=
EXTT0=
EXTT1=
EXTT2=
EXTT3=
EXTT4=
EXTT5=
EXTT6=
EXTT7=
PLAYORDER=
